<svg width="59" height="63" viewBox="0 0 59 63" fill="none" xmlns="http://www.w3.org/2000/svg">
<path d="M41.7975 12.157L43.2116 10.7289M36.5757 9.92914L36.5658 7.91941M29.091 17.4879L27.0813 17.4978M44.1344 17.4138L46.1442 17.4039M31.3761 12.2084L29.948 10.7943M36.37 30.7097L29.6353 32.7662C28.8659 33.0012 28.4812 33.1186 28.2551 33.0209C28.059 32.9361 27.9151 32.7626 27.8678 32.5542C27.8133 32.314 27.9997 31.9576 28.3723 31.2446L35.6645 17.2942C35.9689 16.7119 36.1211 16.4206 36.3257 16.3247C36.5038 16.2411 36.7097 16.2401 36.8887 16.3219C37.0942 16.4159 37.2492 16.7055 37.5594 17.2849L44.9886 31.1627C45.3682 31.8719 45.558 32.2266 45.506 32.4673C45.4607 32.6763 45.3185 32.8509 45.1232 32.9377C44.8982 33.0379 44.5123 32.9241 43.7406 32.6968L36.986 30.7067C36.8713 30.6728 36.814 30.6559 36.7557 30.6494C36.7039 30.6435 36.6516 30.6438 36.5998 30.6502C36.5416 30.6572 36.4844 30.6747 36.37 30.7097Z" stroke="white" stroke-width="3" stroke-linecap="round" stroke-linejoin="round"/>
<path d="M6.5 40.522C6.95933 40.522 7.488 40.587 8.086 40.717C8.69267 40.847 9.13467 40.9857 9.412 41.133V43.655H8.918C8.12067 42.2943 7.06333 41.614 5.746 41.614C5.174 41.614 4.64967 41.783 4.173 42.121C3.705 42.4503 3.33667 42.914 3.068 43.512C2.79933 44.1013 2.665 44.7643 2.665 45.501C2.665 46.3503 2.795 47.126 3.055 47.828C3.32367 48.53 3.72667 49.0933 4.264 49.518C4.81 49.9427 5.48167 50.155 6.279 50.155C7.01567 50.155 8.073 49.6003 9.451 48.491L9.841 49.115L7.449 50.974C7.12833 51.0867 6.81633 51.1603 6.513 51.195C6.21833 51.2383 5.89767 51.26 5.551 51.26C4.641 51.26 3.835 51.039 3.133 50.597C2.431 50.155 1.885 49.5483 1.495 48.777C1.105 47.997 0.91 47.113 0.91 46.125C0.91 45.111 1.20467 44.175 1.794 43.317C2.38333 42.4503 3.11567 41.77 3.991 41.276C4.86633 40.7733 5.70267 40.522 6.5 40.522ZM14.7461 51H11.1191V50.597L12.2761 49.687V41.692L11.1191 40.886V40.483L13.3421 39.651H13.8361V50.025L15.0061 50.48L14.7461 51ZM19.8049 51H16.1779V50.597L17.3349 49.687V45.891L16.1779 45.085V44.682L18.4009 43.85H18.8949V50.025L20.0649 50.48L19.8049 51ZM18.0629 39.95C18.3229 39.95 18.5352 40.0453 18.6999 40.236C18.8732 40.4267 18.9599 40.665 18.9599 40.951C18.9599 41.1503 18.8992 41.341 18.7779 41.523C18.6566 41.6963 18.5049 41.835 18.3229 41.939C18.1409 42.043 17.9632 42.095 17.7899 42.095C17.5299 42.095 17.3132 41.9997 17.1399 41.809C16.9752 41.6183 16.8929 41.38 16.8929 41.094C16.8929 40.8947 16.9536 40.7083 17.0749 40.535C17.1962 40.353 17.3479 40.21 17.5299 40.106C17.7119 40.002 17.8896 39.95 18.0629 39.95ZM25.0786 43.967C25.434 43.967 25.8456 44.019 26.3136 44.123C26.7903 44.2183 27.1326 44.3267 27.3406 44.448V46.45H26.8466C26.5086 46.0167 26.1186 45.6787 25.6766 45.436C25.2433 45.1847 24.7926 45.059 24.3246 45.059C23.926 45.059 23.6226 45.2367 23.4146 45.592C23.2153 45.9473 23.1156 46.4673 23.1156 47.152C23.1156 47.9667 23.2933 48.6513 23.6486 49.206C24.004 49.752 24.511 50.025 25.1696 50.025C25.6636 50.025 26.3656 49.6697 27.2756 48.959L27.6656 49.453L25.6636 51.026C25.317 51.0953 24.901 51.13 24.4156 51.13C23.8436 51.13 23.328 50.9827 22.8686 50.688C22.418 50.3847 22.0626 49.9773 21.8026 49.466C21.5513 48.9547 21.4256 48.3913 21.4256 47.776C21.4256 47.1087 21.612 46.4803 21.9846 45.891C22.366 45.3017 22.8426 44.8337 23.4146 44.487C23.9866 44.1403 24.5413 43.967 25.0786 43.967ZM32.8303 50.48L32.5703 51H28.9433V50.597L30.1003 49.687V41.692L28.9433 40.886V40.483L31.1663 39.651H31.6603V50.025L32.8303 50.48ZM36.9903 51H34.7933L32.3493 47.568L34.7803 45.527L33.5323 44.617L33.7923 44.097H36.8993V44.5L33.8833 47.035L36.0803 50.025L37.2503 50.48L36.9903 51Z" fill="white"/>
</svg>
