<svg width="72" height="45" viewBox="0 0 72 45" fill="none" xmlns="http://www.w3.org/2000/svg">
<path d="M4.80962 27.9833L2.89823 27.3622M5.16729 33.6492L3.37659 34.5616M15.2841 36.9363L16.1965 38.727M8.45444 23.5324L7.54205 21.7416M9.54088 37.2689L8.91983 39.1803M23.8216 24.49L28.6864 29.5811C29.2423 30.1627 29.5201 30.4535 29.5345 30.6994C29.5469 30.9128 29.4567 31.1193 29.2918 31.2552C29.1017 31.4119 28.6995 31.4057 27.8952 31.3934L12.1557 31.1518C11.4986 31.1417 11.1701 31.1366 10.9924 30.9971C10.8377 30.8755 10.7442 30.6921 10.7368 30.4954C10.7283 30.2697 10.9174 30.0009 11.2954 29.4634L20.3513 16.588C20.8142 15.93 21.0456 15.601 21.2841 15.5393C21.4911 15.4857 21.711 15.5342 21.8764 15.6697C22.067 15.8257 22.1388 16.2215 22.2828 17.013L23.542 23.9411C23.5633 24.0588 23.5739 24.1176 23.5944 24.1726C23.6124 24.2216 23.6362 24.2682 23.6652 24.3115C23.6976 24.3604 23.739 24.4036 23.8216 24.49Z" stroke="white" stroke-width="3" stroke-linecap="round" stroke-linejoin="round"/>
<path d="M40.2534 11.522C40.7127 11.522 41.2414 11.587 41.8394 11.717C42.446 11.847 42.888 11.9857 43.1654 12.133V14.655H42.6714C41.874 13.2943 40.8167 12.614 39.4994 12.614C38.9274 12.614 38.403 12.783 37.9264 13.121C37.4584 13.4503 37.09 13.914 36.8214 14.512C36.5527 15.1013 36.4184 15.7643 36.4184 16.501C36.4184 17.3503 36.5484 18.126 36.8084 18.828C37.077 19.53 37.48 20.0933 38.0174 20.518C38.5634 20.9427 39.235 21.155 40.0324 21.155C40.769 21.155 41.8264 20.6003 43.2044 19.491L43.5944 20.115L41.2024 21.974C40.8817 22.0867 40.5697 22.1603 40.2664 22.195C39.9717 22.2383 39.651 22.26 39.3044 22.26C38.3944 22.26 37.5884 22.039 36.8864 21.597C36.1844 21.155 35.6384 20.5483 35.2484 19.777C34.8584 18.997 34.6634 18.113 34.6634 17.125C34.6634 16.111 34.958 15.175 35.5474 14.317C36.1367 13.4503 36.869 12.77 37.7444 12.276C38.6197 11.7733 39.456 11.522 40.2534 11.522ZM48.4994 22H44.8724V21.597L46.0294 20.687V12.692L44.8724 11.886V11.483L47.0954 10.651H47.5894V21.025L48.7594 21.48L48.4994 22ZM53.5582 22H49.9312V21.597L51.0882 20.687V16.891L49.9312 16.085V15.682L52.1542 14.85H52.6482V21.025L53.8182 21.48L53.5582 22ZM51.8162 10.95C52.0762 10.95 52.2886 11.0453 52.4532 11.236C52.6266 11.4267 52.7132 11.665 52.7132 11.951C52.7132 12.1503 52.6526 12.341 52.5312 12.523C52.4099 12.6963 52.2582 12.835 52.0762 12.939C51.8942 13.043 51.7166 13.095 51.5432 13.095C51.2832 13.095 51.0666 12.9997 50.8932 12.809C50.7286 12.6183 50.6462 12.38 50.6462 12.094C50.6462 11.8947 50.7069 11.7083 50.8282 11.535C50.9496 11.353 51.1012 11.21 51.2832 11.106C51.4652 11.002 51.6429 10.95 51.8162 10.95ZM58.832 14.967C59.1873 14.967 59.599 15.019 60.067 15.123C60.5436 15.2183 60.886 15.3267 61.094 15.448V17.45H60.6C60.262 17.0167 59.872 16.6787 59.43 16.436C58.9966 16.1847 58.546 16.059 58.078 16.059C57.6793 16.059 57.376 16.2367 57.168 16.592C56.9686 16.9473 56.869 17.4673 56.869 18.152C56.869 18.9667 57.0466 19.6513 57.402 20.206C57.7573 20.752 58.2643 21.025 58.923 21.025C59.417 21.025 60.119 20.6697 61.029 19.959L61.419 20.453L59.417 22.026C59.0703 22.0953 58.6543 22.13 58.169 22.13C57.597 22.13 57.0813 21.9827 56.622 21.688C56.1713 21.3847 55.816 20.9773 55.556 20.466C55.3046 19.9547 55.179 19.3913 55.179 18.776C55.179 18.1087 55.3653 17.4803 55.738 16.891C56.1193 16.3017 56.596 15.8337 57.168 15.487C57.74 15.1403 58.2946 14.967 58.832 14.967ZM66.5836 21.48L66.3236 22H62.6966V21.597L63.8536 20.687V12.692L62.6966 11.886V11.483L64.9196 10.651H65.4136V21.025L66.5836 21.48ZM70.7436 22H68.5466L66.1026 18.568L68.5336 16.527L67.2856 15.617L67.5456 15.097H70.6526V15.5L67.6366 18.035L69.8336 21.025L71.0036 21.48L70.7436 22Z" fill="white"/>
</svg>
