<svg width="72" height="45" viewBox="0 0 72 45" fill="none" xmlns="http://www.w3.org/2000/svg">
<path d="M5.05626 27.9833L3.14487 27.3622M5.41394 33.6492L3.62323 34.5616M15.5307 36.9363L16.4432 38.727M8.70108 23.5324L7.78869 21.7416M9.78752 37.2689L9.16647 39.1803M24.0683 24.49L28.9331 29.5811C29.489 30.1627 29.7668 30.4535 29.7812 30.6994C29.7935 30.9128 29.7033 31.1193 29.5384 31.2552C29.3483 31.4119 28.9462 31.4057 28.1418 31.3934L12.4024 31.1518C11.7453 31.1417 11.4167 31.1366 11.2391 30.9971C11.0843 30.8755 10.9908 30.6921 10.9835 30.4954C10.975 30.2697 11.164 30.0009 11.5421 29.4634L20.598 16.588C21.0608 15.93 21.2923 15.601 21.5307 15.5393C21.7377 15.4857 21.9577 15.5342 22.123 15.6697C22.3136 15.8257 22.3855 16.2215 22.5294 17.013L23.7886 23.9411C23.81 24.0588 23.8206 24.1176 23.841 24.1726C23.8591 24.2216 23.8828 24.2682 23.9118 24.3115C23.9443 24.3604 23.9856 24.4036 24.0683 24.49Z" stroke="black" stroke-width="3" stroke-linecap="round" stroke-linejoin="round"/>
<path d="M40.5 11.522C40.9593 11.522 41.488 11.587 42.086 11.717C42.6927 11.847 43.1347 11.9857 43.412 12.133V14.655H42.918C42.1207 13.2943 41.0633 12.614 39.746 12.614C39.174 12.614 38.6497 12.783 38.173 13.121C37.705 13.4503 37.3367 13.914 37.068 14.512C36.7993 15.1013 36.665 15.7643 36.665 16.501C36.665 17.3503 36.795 18.126 37.055 18.828C37.3237 19.53 37.7267 20.0933 38.264 20.518C38.81 20.9427 39.4817 21.155 40.279 21.155C41.0157 21.155 42.073 20.6003 43.451 19.491L43.841 20.115L41.449 21.974C41.1283 22.0867 40.8163 22.1603 40.513 22.195C40.2183 22.2383 39.8977 22.26 39.551 22.26C38.641 22.26 37.835 22.039 37.133 21.597C36.431 21.155 35.885 20.5483 35.495 19.777C35.105 18.997 34.91 18.113 34.91 17.125C34.91 16.111 35.2047 15.175 35.794 14.317C36.3833 13.4503 37.1157 12.77 37.991 12.276C38.8663 11.7733 39.7027 11.522 40.5 11.522ZM48.7461 22H45.1191V21.597L46.2761 20.687V12.692L45.1191 11.886V11.483L47.3421 10.651H47.8361V21.025L49.0061 21.48L48.7461 22ZM53.8049 22H50.1779V21.597L51.3349 20.687V16.891L50.1779 16.085V15.682L52.4009 14.85H52.8949V21.025L54.0649 21.48L53.8049 22ZM52.0629 10.95C52.3229 10.95 52.5352 11.0453 52.6999 11.236C52.8732 11.4267 52.9599 11.665 52.9599 11.951C52.9599 12.1503 52.8992 12.341 52.7779 12.523C52.6566 12.6963 52.5049 12.835 52.3229 12.939C52.1409 13.043 51.9632 13.095 51.7899 13.095C51.5299 13.095 51.3132 12.9997 51.1399 12.809C50.9752 12.6183 50.8929 12.38 50.8929 12.094C50.8929 11.8947 50.9536 11.7083 51.0749 11.535C51.1962 11.353 51.3479 11.21 51.5299 11.106C51.7119 11.002 51.8896 10.95 52.0629 10.95ZM59.0786 14.967C59.434 14.967 59.8456 15.019 60.3136 15.123C60.7903 15.2183 61.1326 15.3267 61.3406 15.448V17.45H60.8466C60.5086 17.0167 60.1186 16.6787 59.6766 16.436C59.2433 16.1847 58.7926 16.059 58.3246 16.059C57.926 16.059 57.6226 16.2367 57.4146 16.592C57.2153 16.9473 57.1156 17.4673 57.1156 18.152C57.1156 18.9667 57.2933 19.6513 57.6486 20.206C58.004 20.752 58.511 21.025 59.1696 21.025C59.6636 21.025 60.3656 20.6697 61.2756 19.959L61.6656 20.453L59.6636 22.026C59.317 22.0953 58.901 22.13 58.4156 22.13C57.8436 22.13 57.328 21.9827 56.8686 21.688C56.418 21.3847 56.0626 20.9773 55.8026 20.466C55.5513 19.9547 55.4256 19.3913 55.4256 18.776C55.4256 18.1087 55.612 17.4803 55.9846 16.891C56.366 16.3017 56.8426 15.8337 57.4146 15.487C57.9866 15.1403 58.5413 14.967 59.0786 14.967ZM66.8303 21.48L66.5703 22H62.9433V21.597L64.1003 20.687V12.692L62.9433 11.886V11.483L65.1663 10.651H65.6603V21.025L66.8303 21.48ZM70.9903 22H68.7933L66.3493 18.568L68.7803 16.527L67.5323 15.617L67.7923 15.097H70.8993V15.5L67.8833 18.035L70.0803 21.025L71.2503 21.48L70.9903 22Z" fill="black"/>
</svg>
